<?xml version="1.0" encoding="utf-8"?>
<!-- Generator: Adobe Illustrator 23.0.5, SVG Export Plug-In . SVG Version: 6.00 Build 0)  -->
<svg version="1.1" xmlns="http://www.w3.org/2000/svg" xmlns:xlink="http://www.w3.org/1999/xlink" x="0px" y="0px"
	 viewBox="0 0 488.408 174.726" enable-background="new 0 0 488.408 174.726" xml:space="preserve">
<g id="Layer_1">
	<g>
		<linearGradient id="SVGID_1_" gradientUnits="userSpaceOnUse" x1="45.537" y1="91.4791" x2="165.2859" y2="91.4791">
			<stop  offset="0" style="stop-color:#2B318D"/>
			<stop  offset="1" style="stop-color:#41B0DD"/>
		</linearGradient>
		
			<line fill="none" stroke="url(#SVGID_1_)" stroke-width="15.9503" stroke-linecap="round" stroke-linejoin="round" stroke-miterlimit="10" x1="53.512" y1="91.7" x2="157.311" y2="91.258"/>
		<linearGradient id="SVGID_2_" gradientUnits="userSpaceOnUse" x1="96.8417" y1="83.407" x2="112.7921" y2="83.407">
			<stop  offset="0" style="stop-color:#2B318D"/>
			<stop  offset="1" style="stop-color:#41B0DD"/>
		</linearGradient>
		
			<line fill="none" stroke="url(#SVGID_2_)" stroke-width="15.9503" stroke-linecap="round" stroke-linejoin="round" stroke-miterlimit="10" x1="104.817" y1="26.599" x2="104.817" y2="140.215"/>
		<linearGradient id="SVGID_3_" gradientUnits="userSpaceOnUse" x1="40.364" y1="83.407" x2="169.2698" y2="83.407">
			<stop  offset="0" style="stop-color:#2B318D"/>
			<stop  offset="1" style="stop-color:#41B0DD"/>
		</linearGradient>
		
			<polygon fill="none" stroke="url(#SVGID_3_)" stroke-width="15.9503" stroke-linecap="round" stroke-linejoin="round" stroke-miterlimit="10" points="
			161.295,67.359 160.637,142.867 48.339,141.889 48.994,66.699 77.106,45.33 105.229,23.947 133.262,45.653 		"/>
	</g>
</g>
<g id="Layer_2">
	<g>
		<g>
			<g transform="translate(362.050005, 171.7109)">
				<g>
					<path fill="#FCD540" d="M-169.66-89.184v-47.519h34.013v4.605h-28.791v16.971h18.894v4.557h-18.894v21.386H-169.66z"/>
				</g>
			</g>
		</g>
		<g>
			<g transform="translate(389.169137, 171.7109)">
				<g>
					<path fill="#1869B3" d="M-108.871-112.943c0,3.388-0.635,6.593-1.899,9.613c-1.27,3.008-3.003,5.613-5.198,7.809
						c-2.201,2.184-4.795,3.91-7.785,5.174c-2.979,1.264-6.165,1.899-9.565,1.899c-3.388,0-6.593-0.635-9.613-1.899
						c-3.008-1.264-5.613-2.991-7.809-5.174c-2.184-2.196-3.91-4.801-5.174-7.809c-1.27-3.02-1.899-6.225-1.899-9.613
						c0-3.4,0.629-6.604,1.899-9.613c1.264-3.003,2.991-5.602,5.174-7.785c2.196-2.196,4.801-3.928,7.809-5.198
						c3.02-1.264,6.225-1.899,9.613-1.899c3.4,0,6.587,0.635,9.565,1.899c2.991,1.27,5.584,3.003,7.785,5.198
						c2.196,2.184,3.928,4.783,5.198,7.785C-109.506-119.548-108.871-116.343-108.871-112.943z M-114.164-112.943
						c0-2.753-0.498-5.341-1.495-7.762c-0.997-2.421-2.35-4.498-4.059-6.242c-1.697-1.756-3.721-3.139-6.076-4.154
						c-2.344-1.009-4.854-1.519-7.524-1.519c-2.706,0-5.24,0.51-7.595,1.519c-2.362,1.015-4.385,2.397-6.076,4.154
						c-1.697,1.745-3.038,3.821-4.035,6.242c-0.997,2.421-1.495,5.008-1.495,7.762c0,2.753,0.498,5.335,1.495,7.738
						c0.997,2.409,2.338,4.498,4.035,6.266c1.691,1.756,3.715,3.145,6.076,4.154c2.356,1.015,4.89,1.519,7.595,1.519
						c2.67,0,5.18-0.504,7.524-1.519c2.356-1.009,4.379-2.397,6.076-4.154c1.709-1.768,3.062-3.857,4.059-6.266
						C-114.663-107.609-114.164-110.19-114.164-112.943z"/>
				</g>
			</g>
		</g>
		<g>
			<g transform="translate(425.313087, 171.7109)">
				<g>
					<path fill="#1869B3" d="M-98.536-109.288c0,6.349-1.78,11.411-5.341,15.191c-3.548,3.768-8.302,5.649-14.265,5.649
						c-6.029,0-10.812-1.875-14.336-5.625c-3.531-3.75-5.293-8.818-5.293-15.215v-27.415h5.222v27.415
						c0,4.842,1.311,8.729,3.94,11.654c2.623,2.914,6.112,4.367,10.467,4.367c4.332,0,7.815-1.454,10.444-4.367
						c2.623-2.925,3.94-6.812,3.94-11.654v-27.415h5.222V-109.288z"/>
				</g>
			</g>
		</g>
		<g>
			<g transform="translate(456.765918, 171.7109)">
				<g>
					<path fill="#1869B3" d="M-120.495-89.184v-47.519h20.365c4.617,0,8.355,1.258,11.203,3.774
						c2.848,2.504,4.272,5.791,4.272,9.874c0,3.121-0.92,5.809-2.753,8.07c-1.822,2.267-4.272,3.833-7.358,4.7l10.657,21.101h-5.768
						l-10.183-20.436h-15.215v20.436H-120.495z M-100.462-132.027h-14.811v17.992h14.811c3.163,0,5.72-0.819,7.667-2.469
						c1.946-1.661,2.919-3.845,2.919-6.551c0-2.718-0.973-4.895-2.919-6.527C-94.742-131.208-97.299-132.027-100.462-132.027z"/>
				</g>
			</g>
		</g>
		<g>
			<g transform="translate(359.82605, 213.844931)">
				<g>
					<path fill="#1869B3" d="M-170.031-67.313v-47.851h31.402v4.177h-26.679v17.588h22.501v3.916h-22.501v22.169H-170.031z"/>
				</g>
			</g>
		</g>
		<g>
			<g transform="translate(385.956827, 213.844931)">
				<g>
					<path fill="#1869B3" d="M-137.051-71.229c3.003,0,5.507-0.57,7.5-1.709c2.006-1.151,3.608-2.658,4.795-4.51
						c1.187-1.863,2.018-3.988,2.492-6.361c0.475-2.385,0.712-4.801,0.712-7.239v-24.115h4.723v24.115
						c0,3.246-0.368,6.314-1.092,9.209c-0.712,2.896-1.869,5.447-3.465,7.643c-1.602,2.201-3.679,3.958-6.242,5.269
						c-2.563,1.3-5.685,1.946-9.352,1.946c-3.786,0-6.972-0.676-9.565-2.041c-2.581-1.377-4.652-3.187-6.219-5.435
						c-1.567-2.243-2.694-4.806-3.37-7.69c-0.682-2.878-1.021-5.845-1.021-8.901v-24.115h4.652v24.115
						c0,2.516,0.243,4.973,0.736,7.358c0.504,2.374,1.353,4.486,2.54,6.337c1.187,1.84,2.765,3.317,4.747,4.439
						C-142.505-71.787-140.03-71.229-137.051-71.229z"/>
				</g>
			</g>
		</g>
		<g>
			<g transform="translate(419.452133, 213.844931)">
				<g>
					<path fill="#1869B3" d="M-105.115-110.987h-17.042v43.674h-4.723v-43.674h-17.066v-4.177h38.831V-110.987z"/>
				</g>
			</g>
		</g>
		<g>
			<g transform="translate(446.51456, 213.844931)">
				<g>
					<path fill="#1869B3" d="M-105.617-71.229c3.003,0,5.507-0.57,7.5-1.709c2.006-1.151,3.608-2.658,4.795-4.51
						c1.187-1.863,2.018-3.988,2.492-6.361c0.475-2.385,0.712-4.801,0.712-7.239v-24.115h4.723v24.115
						c0,3.246-0.368,6.314-1.092,9.209c-0.712,2.896-1.869,5.447-3.465,7.643c-1.602,2.201-3.679,3.958-6.242,5.269
						c-2.563,1.3-5.685,1.946-9.352,1.946c-3.786,0-6.972-0.676-9.565-2.041c-2.581-1.377-4.652-3.187-6.219-5.435
						c-1.567-2.243-2.694-4.806-3.37-7.69c-0.682-2.878-1.021-5.845-1.021-8.901v-24.115h4.652v24.115
						c0,2.516,0.243,4.973,0.736,7.358c0.504,2.374,1.353,4.486,2.54,6.337c1.187,1.84,2.765,3.317,4.747,4.439
						C-111.07-71.787-108.596-71.229-105.617-71.229z"/>
				</g>
			</g>
		</g>
		<g>
			<g transform="translate(480.009866, 213.844931)">
				<g>
					<path fill="#1869B3" d="M-107.646-67.313v-47.851h20.223c2.053,0,3.946,0.439,5.673,1.305c1.739,0.872,3.234,2.018,4.486,3.442
						c1.264,1.412,2.243,3.014,2.943,4.818c0.694,1.792,1.044,3.608,1.044,5.459c0,1.756-0.261,3.436-0.783,5.032
						c-0.51,1.584-1.228,3.014-2.16,4.296c-0.92,1.282-2.029,2.368-3.323,3.252c-1.3,0.872-2.765,1.466-4.391,1.78l11.749,18.466
						h-5.341l-11.251-17.659h-14.146v17.659H-107.646z M-102.923-89.15h15.618c1.389,0,2.658-0.297,3.798-0.902
						c1.151-0.617,2.136-1.436,2.943-2.469c0.819-1.027,1.454-2.19,1.899-3.489c0.439-1.311,0.665-2.688,0.665-4.13
						c0-1.436-0.261-2.825-0.783-4.154c-0.51-1.329-1.205-2.48-2.089-3.465c-0.872-0.979-1.899-1.762-3.086-2.35
						c-1.187-0.582-2.439-0.878-3.75-0.878h-15.215V-89.15z"/>
				</g>
			</g>
		</g>
		<g>
			<g transform="translate(508.979979, 213.844931)">
				<g>
					<path fill="#1869B3" d="M-60.47-71.491v4.177h-32.138v-47.851h31.545v4.177h-26.821v17.256h23.38v3.964h-23.38v18.276H-60.47z"
						/>
				</g>
			</g>
		</g>
	</g>
</g>
</svg>
